<?xml version="1.0" encoding="utf-8"?>
<!-- Generator: Adobe Illustrator 16.0.0, SVG Export Plug-In . SVG Version: 6.00 Build 0)  -->
<!DOCTYPE svg PUBLIC "-//W3C//DTD SVG 1.1//EN" "http://www.w3.org/Graphics/SVG/1.1/DTD/svg11.dtd">
<svg version="1.1" xmlns="http://www.w3.org/2000/svg" xmlns:xlink="http://www.w3.org/1999/xlink" x="0px" y="0px"
	 width="117.667px" height="42.833px" viewBox="0 0 117.667 42.833" enable-background="new 0 0 117.667 42.833"
	 xml:space="preserve">
<g id="typed" display="none">
	
		<text transform="matrix(1 0 0 1 1.7827 40.4082)" display="inline" font-family="'HoeflerText-Black'" font-size="54" letter-spacing="-2">bade</text>
</g>
<g id="outlines">
	<g display="none">
		<path display="inline" fill="#404041" d="M33.103,27.895c0,3.276-1.251,6.336-3.753,9.18s-6.147,4.266-10.935,4.266
			c-2.268,0-3.915-0.306-4.941-0.918c-1.026-0.611-2.223-0.918-3.591-0.918c-0.685,0-1.242,0.135-1.674,0.405
			c-0.432,0.27-0.774,0.692-1.026,1.269c-0.072,0.108-0.243,0.198-0.513,0.27c-0.27,0.071-0.478,0.108-0.621,0.108
			c-0.18,0-0.405-0.045-0.675-0.135c-0.27-0.09-0.405-0.189-0.405-0.297c0.036-0.468,0.081-1.152,0.135-2.052
			c0.054-0.9,0.081-2.034,0.081-3.402V11.317c0-1.404-0.27-2.339-0.81-2.808c-0.54-0.468-1.476-0.773-2.808-0.918
			c-0.108,0-0.207-0.135-0.297-0.405c-0.09-0.27-0.135-0.495-0.135-0.675c0-0.18,0.045-0.414,0.135-0.702
			c0.09-0.288,0.189-0.432,0.297-0.432c1.691-0.396,3.626-0.99,5.805-1.782c2.178-0.792,3.843-1.476,4.995-2.052
			c0.108-0.072,0.288-0.162,0.54-0.27c0.252-0.108,0.468-0.162,0.648-0.162c0.468,0,0.792,0.072,0.972,0.216
			c0.18,0.144,0.27,0.306,0.27,0.486c-0.108,1.368-0.208,2.952-0.297,4.752c-0.09,1.8-0.135,3.258-0.135,4.374v7.56
			c0.648-0.9,1.575-1.62,2.781-2.16s2.565-0.81,4.077-0.81c3.24,0,6.03,1.018,8.37,3.051C31.933,20.614,33.103,23.719,33.103,27.895
			z M23.329,28.111c0-3.096-0.36-5.354-1.08-6.777c-0.72-1.422-1.998-2.133-3.834-2.133c-1.296,0-2.295,0.414-2.997,1.242
			c-0.702,0.828-1.053,1.728-1.053,2.7v11.988c0,1.044,0.27,1.899,0.81,2.565c0.54,0.667,1.404,0.999,2.592,0.999
			c2.16,0,3.627-1.107,4.401-3.321S23.329,30.739,23.329,28.111z"/>
		<path display="inline" fill="#404041" d="M61.668,37.885c-0.036,0.108-0.054,0.198-0.054,0.27s-0.054,0.144-0.162,0.216
			c-0.684,0.792-1.746,1.44-3.186,1.944c-1.44,0.504-2.916,0.756-4.428,0.756c-1.476,0-2.673-0.333-3.591-0.999
			c-0.918-0.666-1.521-1.557-1.809-2.673c-0.828,1.26-1.881,2.187-3.159,2.781c-1.278,0.594-2.853,0.891-4.725,0.891
			c-2.052,0-3.789-0.468-5.211-1.404s-2.133-2.358-2.133-4.266c0-2.124,1.17-3.852,3.51-5.184c2.34-1.332,6.264-2.609,11.772-3.834
			l0.162-5.292c0-1.116-0.162-1.854-0.486-2.214c-0.324-0.36-0.864-0.54-1.62-0.54s-1.449,0.145-2.079,0.432
			c-0.63,0.288-0.981,0.882-1.053,1.782c-0.18,2.232-0.648,3.78-1.404,4.644c-0.756,0.864-1.872,1.296-3.348,1.296
			c-1.333,0-2.349-0.387-3.051-1.161s-1.053-1.701-1.053-2.781c0-1.799,1.467-3.456,4.401-4.968
			c2.934-1.512,6.219-2.268,9.855-2.268c3.312,0,5.571,0.828,6.777,2.484c1.206,1.656,1.755,3.906,1.647,6.75l-0.27,9.396
			c-0.072,1.26,0.108,2.079,0.54,2.457c0.432,0.378,0.846,0.567,1.242,0.567c0.324,0,0.63-0.054,0.918-0.162
			c0.288-0.108,0.54-0.252,0.756-0.432c0.144-0.108,0.387,0.027,0.729,0.405C61.497,37.156,61.668,37.525,61.668,37.885z
			 M48.384,28.381c-2.124,0.504-3.654,1.188-4.59,2.052c-0.936,0.864-1.404,2.106-1.404,3.726c0,0.9,0.243,1.62,0.729,2.16
			c0.486,0.54,1.161,0.81,2.025,0.81c0.72,0,1.377-0.225,1.971-0.675c0.594-0.45,0.963-1.305,1.107-2.565L48.384,28.381z"/>
		<path display="inline" fill="#404041" d="M91.421,37.453c0,0.216-0.045,0.45-0.135,0.702c-0.09,0.252-0.189,0.378-0.297,0.378
			c-1.044,0.108-2.628,0.468-4.752,1.08c-2.124,0.612-3.726,1.152-4.806,1.62c-0.108,0.036-0.288,0.099-0.54,0.189
			c-0.252,0.09-0.504,0.135-0.756,0.135c-0.289,0-0.513-0.081-0.675-0.243s-0.243-0.315-0.243-0.459l-0.162-3.294
			c-0.685,1.152-1.62,2.07-2.808,2.754c-1.188,0.684-2.61,1.026-4.266,1.026c-3.672,0-6.57-1.206-8.694-3.618
			c-2.124-2.412-3.186-5.4-3.186-8.964c0-3.888,1.17-7.064,3.51-9.531c2.34-2.466,5.562-3.699,9.666-3.699
			c1.332,0,2.448,0.208,3.348,0.621c0.9,0.415,1.638,0.855,2.214,1.323v-6.156c0-1.404-0.27-2.339-0.81-2.808
			c-0.54-0.468-1.494-0.773-2.862-0.918c-0.108,0-0.207-0.135-0.297-0.405c-0.09-0.27-0.135-0.495-0.135-0.675
			c0-0.18,0.045-0.414,0.135-0.702c0.09-0.288,0.189-0.432,0.297-0.432c1.656-0.36,3.618-0.962,5.886-1.809
			c2.268-0.846,3.924-1.521,4.968-2.025c0.108-0.072,0.288-0.162,0.54-0.27c0.252-0.108,0.468-0.162,0.648-0.162
			c0.432,0,0.747,0.072,0.945,0.216s0.297,0.306,0.297,0.486c-0.108,1.368-0.207,2.952-0.297,4.752
			c-0.09,1.8-0.135,3.258-0.135,4.374v21.978c0,1.296,0.198,2.151,0.594,2.565c0.396,0.415,1.188,0.693,2.376,0.837
			c0.108,0,0.207,0.145,0.297,0.432C91.376,37.039,91.421,37.273,91.421,37.453z M78.839,34.105V22.009
			c0-0.972-0.369-1.791-1.107-2.457c-0.738-0.666-1.809-0.999-3.213-0.999c-1.26,0-2.349,0.594-3.267,1.782
			s-1.377,3.996-1.377,8.424c0,3.276,0.423,5.571,1.269,6.885c0.846,1.314,1.881,1.971,3.105,1.971c0.936,0,1.8-0.288,2.592-0.864
			C77.633,36.175,78.299,35.293,78.839,34.105z"/>
		<path display="inline" fill="#404041" d="M116.531,26.005c0,0.252-0.09,0.45-0.27,0.594c-0.18,0.144-0.432,0.216-0.756,0.216
			h-14.904c-0.036,0.252-0.054,0.585-0.054,0.999c0,0.415,0,0.801,0,1.161c0,3.024,0.495,5.13,1.485,6.318
			c0.99,1.188,2.421,1.782,4.293,1.782c1.296,0,2.754-0.324,4.374-0.972s2.79-1.458,3.51-2.43c0.036-0.072,0.144-0.044,0.324,0.081
			c0.18,0.126,0.342,0.243,0.486,0.351c0.18,0.18,0.333,0.369,0.459,0.567c0.125,0.198,0.189,0.387,0.189,0.567
			c0,0.072-0.009,0.144-0.027,0.216c-0.018,0.072-0.063,0.144-0.135,0.216c-0.9,1.296-2.232,2.556-3.996,3.78
			c-1.764,1.224-4.122,1.836-7.074,1.836c-3.852,0-7.092-1.242-9.72-3.726c-2.628-2.484-3.942-5.417-3.942-8.802
			c0-3.815,1.25-6.975,3.753-9.477c2.501-2.502,5.805-3.753,9.909-3.753c3.744,0,6.696,1.008,8.856,3.024
			C115.451,20.569,116.531,23.053,116.531,26.005z M107.567,21.955c0-1.08-0.243-1.998-0.729-2.754
			c-0.486-0.756-1.215-1.134-2.187-1.134c-1.188,0-2.07,0.577-2.646,1.728c-0.576,1.152-0.955,2.664-1.134,4.536l4.428-0.108
			c0.792-0.036,1.368-0.189,1.728-0.459C107.387,23.494,107.567,22.891,107.567,21.955z"/>
	</g>
	<g>
		<path fill="#404041" d="M115.02,34.105c-0.145-0.108-0.307-0.225-0.486-0.351c-0.18-0.125-0.288-0.153-0.324-0.081
			c-0.72,0.972-1.89,1.782-3.51,2.43s-3.078,0.972-4.374,0.972c-1.872,0-3.303-0.594-4.293-1.782
			c-0.99-1.188-1.485-3.294-1.485-6.318c0-0.36,0-0.747,0-1.161c0-0.414,0.018-0.747,0.054-0.999h14.709
			c-2.925-1.16-5.887-2.088-8.87-2.774c-0.312,0.098-0.687,0.161-1.142,0.182l-4.428,0.108c0.043-0.447,0.099-0.87,0.164-1.275
			c-2.954-0.403-5.911-0.59-8.851-0.561c-0.937,1.843-1.411,3.929-1.411,6.264c0,3.385,1.313,6.318,3.942,8.802
			c2.628,2.484,5.868,3.726,9.72,3.726c2.952,0,5.31-0.612,7.074-1.836c1.764-1.224,3.096-2.484,3.996-3.78
			c0.072-0.072,0.117-0.144,0.135-0.216c0.018-0.072,0.027-0.144,0.027-0.216c0-0.18-0.063-0.369-0.189-0.567
			C115.352,34.474,115.199,34.285,115.02,34.105z"/>
		<path fill="#404041" d="M102.834,18.736c0.497-0.428,1.093-0.669,1.817-0.669c0.972,0,1.701,0.378,2.187,1.134
			c0.03,0.046,0.05,0.099,0.079,0.147c2.896,0.534,5.782,1.282,8.638,2.249c-0.536-1.109-1.282-2.127-2.264-3.043
			c-2.16-2.016-5.112-3.024-8.856-3.024c-3.54,0-6.48,0.936-8.828,2.798C98.009,18.322,100.421,18.456,102.834,18.736z"/>
	</g>
	<path fill="#404041" d="M42.722,23.977c0.347-0.866,0.579-2.006,0.694-3.425c0.072-0.9,0.422-1.494,1.053-1.782
		c0.63-0.288,1.323-0.432,2.079-0.432s1.296,0.18,1.62,0.54c0.324,0.36,0.486,1.098,0.486,2.214l-0.113,3.681
		c2.879,0.47,5.761,1.061,8.642,1.77l0.057-1.994c0.108-2.844-0.441-5.094-1.647-6.75c-1.206-1.656-3.465-2.484-6.777-2.484
		c-3.636,0-6.921,0.756-9.855,2.268c-2.934,1.512-4.401,3.168-4.401,4.968c0,0.296,0.032,0.579,0.085,0.852
		C37.328,23.493,40.022,23.683,42.722,23.977z"/>
	<g>
		<path fill="#404041" d="M1.567,7.591c1.332,0.145,2.268,0.45,2.808,0.918c0.54,0.469,0.81,1.404,0.81,2.808v15.108
			c3.022-0.735,6.086-1.338,9.18-1.814v-1.467c0-0.972,0.351-1.872,1.053-2.7c0.702-0.828,1.701-1.242,2.997-1.242
			c1.836,0,3.114,0.711,3.834,2.133c0.308,0.609,0.546,1.382,0.723,2.298c3.159-0.231,6.342-0.326,9.544-0.279
			c-0.564-1.967-1.532-3.564-2.923-4.773c-2.34-2.034-5.13-3.051-8.37-3.051c-1.512,0-2.871,0.27-4.077,0.81s-2.133,1.26-2.781,2.16
			v-7.56c0-1.116,0.045-2.574,0.135-4.374c0.09-1.8,0.189-3.384,0.297-4.752c0-0.18-0.09-0.342-0.27-0.486
			c-0.18-0.144-0.504-0.216-0.972-0.216c-0.18,0-0.396,0.054-0.648,0.162c-0.252,0.108-0.432,0.198-0.54,0.27
			c-1.152,0.576-2.817,1.26-4.995,2.052C5.193,4.387,3.258,4.981,1.567,5.377c-0.108,0-0.207,0.145-0.297,0.432
			C1.18,6.097,1.135,6.332,1.135,6.511c0,0.18,0.045,0.405,0.135,0.675C1.36,7.456,1.458,7.591,1.567,7.591z"/>
		<path fill="#404041" d="M23.257,30.005c-0.143,1.907-0.505,3.697-1.09,5.369c-0.774,2.214-2.241,3.321-4.401,3.321
			c-1.188,0-2.052-0.333-2.592-0.999c-0.54-0.666-0.81-1.521-0.81-2.565v-3.576c-3.103,0.678-6.165,1.495-9.18,2.439v1.677
			c0,1.368-0.027,2.502-0.081,3.402c-0.054,0.9-0.099,1.583-0.135,2.052c0,0.108,0.135,0.207,0.405,0.297
			c0.27,0.09,0.495,0.135,0.675,0.135c0.144,0,0.351-0.037,0.621-0.108c0.27-0.072,0.44-0.162,0.513-0.27
			c0.252-0.577,0.594-0.999,1.026-1.269c0.432-0.27,0.99-0.405,1.674-0.405c1.368,0,2.565,0.307,3.591,0.918
			c1.026,0.612,2.673,0.918,4.941,0.918c4.788,0,8.433-1.421,10.935-4.266c2.176-2.473,3.403-5.11,3.687-7.909
			C29.749,29.295,26.487,29.58,23.257,30.005z"/>
	</g>
	<path fill="#404041" d="M76.841,36.751c-0.792,0.576-1.656,0.864-2.592,0.864c-1.224,0-2.259-0.657-3.105-1.971
		c-0.229-0.356-0.424-0.79-0.591-1.289c-1.854-0.598-3.728-1.163-5.635-1.666c-1.467-0.387-2.934-0.733-4.401-1.057
		c-0.044,0.027-0.086,0.056-0.13,0.083c0.438,2.29,1.395,4.298,2.901,6.008c2.124,2.412,5.022,3.618,8.694,3.618
		c1.656,0,3.078-0.342,4.266-1.026c1.188-0.684,2.124-1.602,2.808-2.754l0.162,3.294c0,0.144,0.081,0.297,0.243,0.459
		s0.387,0.243,0.675,0.243c0.251,0,0.503-0.045,0.756-0.135c0.252-0.09,0.432-0.153,0.54-0.189c0.811-0.351,1.914-0.743,3.312-1.175
		c-2.53-1.233-5.125-2.368-7.78-3.412C76.922,36.678,76.884,36.72,76.841,36.751z"/>
	<g>
		<path fill="#404041" d="M60.426,36.373c-0.216,0.18-0.468,0.324-0.756,0.432c-0.288,0.108-0.594,0.162-0.918,0.162
			c-0.396,0-0.81-0.189-1.242-0.567c-0.426-0.374-0.605-1.181-0.541-2.415c-2.47,1.757-4.827,3.693-7.036,5.817
			c0.104,0.09,0.199,0.187,0.313,0.27c0.918,0.666,2.115,0.999,3.591,0.999c1.512,0,2.988-0.252,4.428-0.756
			c1.439-0.503,2.501-1.152,3.186-1.944c0.108-0.072,0.162-0.144,0.162-0.216s0.018-0.162,0.054-0.27
			c0-0.36-0.171-0.729-0.513-1.107C60.812,36.4,60.57,36.265,60.426,36.373z"/>
		<path fill="#404041" d="M45.279,40.18c1.278-0.594,2.331-1.521,3.159-2.781c0.154,0.598,0.406,1.126,0.741,1.595
			c2.421-2.673,5.057-5.102,7.855-7.292l0.022-0.781c-2.907-0.543-5.812-0.961-8.71-1.262l-0.125,4.229
			c-0.144,1.26-0.513,2.115-1.107,2.565c-0.594,0.45-1.251,0.675-1.971,0.675c-0.864,0-1.539-0.27-2.025-0.81
			c-0.486-0.54-0.729-1.26-0.729-2.16c0-1.62,0.468-2.862,1.404-3.726c0.415-0.383,0.965-0.724,1.613-1.036
			c-2.111-0.161-4.217-0.257-6.315-0.293c-0.912,0.367-1.712,0.738-2.372,1.113c-2.34,1.333-3.51,3.061-3.51,5.184
			c0,1.908,0.711,3.331,2.133,4.266s3.159,1.404,5.211,1.404C42.426,41.071,44,40.774,45.279,40.18z"/>
	</g>
	<g>
		<path fill="#404041" d="M70.159,23.788c0.227-1.636,0.588-2.799,1.093-3.453c0.918-1.188,2.007-1.782,3.267-1.782
			c1.404,0,2.475,0.333,3.213,0.999c0.387,0.349,0.666,0.743,0.85,1.176c3.085-0.88,6.24-1.522,9.437-1.921v-7.868
			c0-1.116,0.045-2.574,0.135-4.374c0.09-1.8,0.189-3.384,0.297-4.752c0-0.18-0.099-0.342-0.297-0.486s-0.513-0.216-0.945-0.216
			c-0.18,0-0.396,0.054-0.648,0.162c-0.252,0.108-0.432,0.198-0.54,0.27c-1.044,0.504-2.7,1.179-4.968,2.025
			c-2.268,0.847-4.23,1.449-5.886,1.809c-0.108,0-0.207,0.145-0.297,0.432c-0.09,0.288-0.135,0.522-0.135,0.702
			c0,0.18,0.045,0.405,0.135,0.675c0.09,0.27,0.189,0.405,0.297,0.405c1.368,0.145,2.322,0.45,2.862,0.918
			c0.54,0.469,0.81,1.404,0.81,2.808v6.156c-0.576-0.468-1.314-0.909-2.214-1.323c-0.9-0.414-2.016-0.621-3.348-0.621
			c-4.104,0-7.326,1.233-9.666,3.699c-2.045,2.156-3.196,4.854-3.454,8.096c0.73,0.201,1.443,0.435,2.166,0.649
			C64.838,26.392,67.458,24.995,70.159,23.788z"/>
		<path fill="#404041" d="M90.99,36.319c-1.188-0.144-1.98-0.422-2.376-0.837c-0.396-0.414-0.594-1.269-0.594-2.565V22.692
			c-3.1,0.243-6.169,0.711-9.18,1.414v9.999c-0.031,0.067-0.066,0.124-0.098,0.19c3.11,1.5,6.128,3.129,9.044,4.893
			c1.361-0.355,2.432-0.575,3.204-0.654c0.108,0,0.207-0.126,0.297-0.378c0.09-0.252,0.135-0.486,0.135-0.702
			c0-0.18-0.045-0.414-0.135-0.702C91.196,36.463,91.098,36.319,90.99,36.319z"/>
		<path fill="#404041" d="M69.908,26.927c-1.518,0.607-3.014,1.267-4.481,1.992c1.516,0.497,3.019,1.019,4.499,1.578
			c-0.03-0.548-0.05-1.12-0.05-1.738C69.875,28.11,69.889,27.506,69.908,26.927z"/>
	</g>
</g>
<g id="masked">
	<defs>
		<path id="SVGID_1_" d="M33.103,27.895c0,3.276-1.251,6.336-3.753,9.18s-6.146,4.266-10.935,4.266
			c-2.269,0-3.915-0.306-4.941-0.918c-1.025-0.611-2.223-0.918-3.591-0.918c-0.685,0-1.242,0.135-1.674,0.405
			s-0.774,0.692-1.026,1.269c-0.072,0.108-0.242,0.198-0.513,0.27c-0.27,0.071-0.478,0.108-0.621,0.108
			c-0.18,0-0.405-0.045-0.675-0.135c-0.271-0.09-0.405-0.189-0.405-0.297c0.036-0.468,0.081-1.152,0.135-2.052
			c0.055-0.9,0.081-2.034,0.081-3.402V11.317c0-1.404-0.27-2.339-0.81-2.808c-0.54-0.468-1.477-0.773-2.808-0.918
			c-0.108,0-0.207-0.135-0.298-0.405c-0.09-0.27-0.135-0.495-0.135-0.675c0-0.18,0.045-0.414,0.135-0.702
			C1.36,5.521,1.459,5.377,1.567,5.377c1.691-0.396,3.626-0.99,5.805-1.782c2.178-0.792,3.843-1.476,4.995-2.052
			c0.107-0.072,0.287-0.162,0.54-0.27c0.252-0.108,0.468-0.162,0.647-0.162c0.468,0,0.792,0.072,0.973,0.216
			c0.18,0.144,0.27,0.306,0.27,0.486C14.688,3.181,14.59,4.765,14.5,6.565c-0.09,1.8-0.135,3.258-0.135,4.374v7.56
			c0.647-0.9,1.574-1.62,2.78-2.16s2.565-0.81,4.077-0.81c3.24,0,6.03,1.018,8.37,3.051C31.933,20.614,33.103,23.719,33.103,27.895z
			 M23.329,28.111c0-3.096-0.36-5.354-1.08-6.777c-0.72-1.422-1.998-2.133-3.834-2.133c-1.296,0-2.295,0.414-2.997,1.242
			c-0.702,0.828-1.053,1.728-1.053,2.7v11.988c0,1.044,0.27,1.899,0.81,2.565c0.54,0.667,1.404,0.999,2.592,0.999
			c2.16,0,3.627-1.107,4.401-3.321C22.941,33.16,23.329,30.739,23.329,28.111z M61.668,37.885c-0.036,0.108-0.054,0.198-0.054,0.27
			s-0.054,0.144-0.162,0.216c-0.685,0.792-1.746,1.44-3.186,1.944c-1.44,0.504-2.916,0.756-4.429,0.756
			c-1.476,0-2.673-0.333-3.591-0.999c-0.918-0.666-1.521-1.557-1.809-2.673c-0.828,1.26-1.882,2.187-3.159,2.781
			c-1.278,0.594-2.854,0.891-4.726,0.891c-2.052,0-3.789-0.468-5.211-1.404s-2.133-2.358-2.133-4.266c0-2.124,1.17-3.852,3.51-5.184
			c2.34-1.332,6.265-2.609,11.772-3.834l0.162-5.292c0-1.116-0.162-1.854-0.486-2.214c-0.324-0.36-0.864-0.54-1.62-0.54
			s-1.449,0.145-2.079,0.432c-0.63,0.288-0.98,0.882-1.053,1.782c-0.18,2.232-0.647,3.78-1.404,4.644
			c-0.756,0.864-1.872,1.296-3.348,1.296c-1.332,0-2.349-0.387-3.051-1.161s-1.053-1.701-1.053-2.781c0-1.799,1.467-3.456,4.4-4.968
			s6.219-2.268,9.855-2.268c3.312,0,5.57,0.828,6.776,2.484c1.206,1.656,1.755,3.906,1.647,6.75l-0.271,9.396
			c-0.071,1.26,0.108,2.079,0.54,2.457c0.433,0.378,0.847,0.567,1.242,0.567c0.324,0,0.63-0.054,0.918-0.162s0.54-0.252,0.756-0.432
			c0.145-0.108,0.387,0.027,0.729,0.405C61.497,37.156,61.668,37.525,61.668,37.885z M48.384,28.381
			c-2.124,0.504-3.654,1.188-4.59,2.052c-0.936,0.864-1.404,2.106-1.404,3.726c0,0.9,0.243,1.62,0.729,2.16s1.161,0.81,2.025,0.81
			c0.72,0,1.377-0.225,1.971-0.675c0.594-0.45,0.963-1.305,1.106-2.565L48.384,28.381z M91.422,37.453
			c0,0.216-0.045,0.45-0.135,0.702c-0.091,0.252-0.189,0.378-0.297,0.378c-1.045,0.108-2.629,0.468-4.753,1.08
			c-2.124,0.612-3.726,1.152-4.806,1.62c-0.107,0.036-0.288,0.099-0.54,0.189c-0.252,0.09-0.504,0.135-0.756,0.135
			c-0.288,0-0.513-0.081-0.675-0.243s-0.243-0.315-0.243-0.459l-0.162-3.294c-0.685,1.152-1.62,2.07-2.808,2.754
			c-1.188,0.684-2.61,1.026-4.267,1.026c-3.672,0-6.57-1.206-8.693-3.618c-2.124-2.412-3.187-5.4-3.187-8.964
			c0-3.888,1.17-7.064,3.51-9.531c2.34-2.466,5.562-3.699,9.666-3.699c1.332,0,2.448,0.208,3.349,0.621
			c0.899,0.415,1.638,0.855,2.214,1.323v-6.156c0-1.404-0.271-2.339-0.811-2.808c-0.539-0.468-1.494-0.773-2.861-0.918
			c-0.108,0-0.207-0.135-0.297-0.405c-0.091-0.27-0.136-0.495-0.136-0.675c0-0.18,0.045-0.414,0.136-0.702
			c0.09-0.288,0.188-0.432,0.297-0.432c1.655-0.36,3.618-0.962,5.886-1.809c2.269-0.846,3.924-1.521,4.968-2.025
			c0.108-0.072,0.288-0.162,0.54-0.27s0.468-0.162,0.648-0.162c0.432,0,0.746,0.072,0.944,0.216s0.298,0.306,0.298,0.486
			c-0.108,1.368-0.207,2.952-0.298,4.752c-0.09,1.8-0.135,3.258-0.135,4.374v21.978c0,1.296,0.198,2.151,0.595,2.565
			c0.396,0.415,1.188,0.693,2.376,0.837c0.107,0,0.206,0.145,0.297,0.432C91.377,37.039,91.422,37.273,91.422,37.453z M78.84,34.105
			V22.009c0-0.972-0.369-1.791-1.107-2.457s-1.809-0.999-3.213-0.999c-1.26,0-2.349,0.594-3.267,1.782s-1.377,3.996-1.377,8.424
			c0,3.276,0.423,5.571,1.269,6.885s1.881,1.971,3.105,1.971c0.936,0,1.8-0.288,2.592-0.864C77.634,36.175,78.3,35.293,78.84,34.105
			z M116.531,26.005c0,0.252-0.09,0.45-0.27,0.594s-0.432,0.216-0.756,0.216h-14.904c-0.036,0.252-0.054,0.585-0.054,0.999
			c0,0.415,0,0.801,0,1.161c0,3.024,0.494,5.13,1.484,6.318s2.421,1.782,4.294,1.782c1.295,0,2.754-0.324,4.373-0.972
			c1.621-0.648,2.791-1.458,3.511-2.43c0.036-0.072,0.144-0.044,0.323,0.081c0.18,0.126,0.342,0.243,0.486,0.351
			c0.18,0.18,0.333,0.369,0.459,0.567c0.126,0.198,0.189,0.387,0.189,0.567c0,0.072-0.01,0.144-0.027,0.216
			c-0.018,0.072-0.062,0.144-0.135,0.216c-0.9,1.296-2.232,2.556-3.996,3.78c-1.764,1.224-4.122,1.836-7.074,1.836
			c-3.853,0-7.092-1.242-9.72-3.726c-2.629-2.484-3.942-5.417-3.942-8.802c0-3.815,1.251-6.975,3.753-9.477s5.806-3.753,9.909-3.753
			c3.744,0,6.696,1.008,8.856,3.024C115.451,20.569,116.531,23.053,116.531,26.005z M107.568,21.955c0-1.08-0.244-1.998-0.729-2.754
			c-0.485-0.756-1.215-1.134-2.188-1.134c-1.188,0-2.07,0.577-2.646,1.728c-0.576,1.152-0.955,2.664-1.135,4.536l4.429-0.108
			c0.792-0.036,1.368-0.189,1.728-0.459C107.388,23.494,107.568,22.891,107.568,21.955z"/>
	</defs>
	<clipPath id="SVGID_2_">
		<use xlink:href="#SVGID_1_"  overflow="visible"/>
	</clipPath>
	<linearGradient id="SVGID_3_" gradientUnits="userSpaceOnUse" x1="0.5879" y1="22.6475" x2="108.1665" y2="22.6475">
		<stop  offset="0" style="stop-color:#EA2127"/>
		<stop  offset="1" style="stop-color:#2582C5"/>
	</linearGradient>
	<path display="none" clip-path="url(#SVGID_2_)" fill="url(#SVGID_3_)" d="M0.916,28.834c51.833,14.667,91.75,5.75,107.25-11.75
		c-7.333,6.167-76.25,20-106.75-8C0.417,12.334,0.416,24.334,0.916,28.834z"/>
	<g clip-path="url(#SVGID_2_)">
		<path fill="#EC1C24" d="M60.979,28.899C2.997,13.59-56.339,47.892-71.553,105.516C-85.7,159.103-56.695,213.962-5.933,233.7
			c-52.442-19.051-82.687-75.036-68.256-129.698C-58.898,46.089,0.736,11.614,59.008,26.999c20.356,5.375,37.84,16.135,51.34,30.314
			C97.16,44.072,80.384,34.022,60.979,28.899z"/>
		<path fill="#F1F1F2" d="M62.948,30.795C5.257,15.563-53.782,49.695-68.919,107.03c-14.066,53.283,14.747,107.833,65.195,127.504
			c-52.127-18.986-82.18-74.659-67.829-129.019C-56.339,47.892,2.997,13.59,60.979,28.899c20.234,5.342,37.615,16.031,51.042,30.12
			C98.907,45.868,82.234,35.886,62.948,30.795z"/>
		<path fill="#00ADEE" d="M64.918,32.689C7.517,17.535-51.227,51.495-66.29,108.543c-13.997,53.013,14.67,107.287,64.859,126.862
			c-51.865-18.891-81.767-74.288-67.489-128.375C-53.782,49.695,5.257,15.563,62.948,30.795
			c20.115,5.31,37.397,15.932,50.752,29.931C100.659,47.664,84.086,37.75,64.918,32.689z"/>
	</g>
	<g clip-path="url(#SVGID_2_)">
		<path fill="#EC1C24" d="M151.425,107.191c13.853-31.681-0.441-68.522-31.926-82.289C90.22,12.101,56.397,23.772,40.661,50.948
			c15.495-28.192,50.067-40.472,79.935-27.413c31.643,13.834,46.008,50.861,32.087,82.701
			c-4.863,11.123-12.541,20.131-21.813,26.568C139.58,126.462,146.789,117.793,151.425,107.191z"/>
		<path fill="#F1F1F2" d="M150.171,108.145c13.783-31.522-0.44-68.179-31.768-81.876C89.291,13.54,55.661,25.13,39.989,52.132
			c15.43-28.019,49.808-40.215,79.51-27.23c31.485,13.767,45.779,50.608,31.926,82.289c-4.834,11.056-12.461,20.012-21.677,26.416
			C138.402,127.299,145.564,118.682,150.171,108.145z"/>
		<path fill="#00ADEE" d="M148.917,109.1c13.714-31.364-0.438-67.837-31.608-81.467c-28.965-12.665-62.425-1.134-78.018,25.729
			c15.352-27.878,49.561-40.014,79.113-27.094c31.327,13.697,45.55,50.354,31.768,81.876c-4.806,10.991-12.386,19.898-21.543,26.269
			C137.223,128.138,144.339,119.573,148.917,109.1z"/>
	</g>
</g>
<g id="swoosh" display="none">
	<g display="inline">
		<g>
			<g>
				<path fill="#EC1C24" d="M37.557,34.12c-75.292,0-136.328-61.036-136.328-136.328c0-69.968,52.714-127.616,120.592-135.419
					c-69.698,6.426-124.277,65.044-124.277,136.419c0,75.67,61.343,137.013,137.013,137.013c26.296,0,50.859-7.414,71.722-20.257
					C86.1,27.35,62.62,34.12,37.557,34.12z"/>
			</g>
		</g>
		<g>
			<g>
				<path fill="#FFFFFF" d="M40.557,32.438c-74.916,0-135.646-60.731-135.646-135.646c0-69.569,52.376-126.896,119.845-134.725
					c-69.288,6.454-123.527,64.751-123.527,135.725c0,75.292,61.036,136.328,136.328,136.328c26.115,0,50.512-7.349,71.246-20.083
					C88.754,25.732,65.44,32.438,40.557,32.438z"/>
			</g>
		</g>
		<g>
			<g>
				<path fill="#2E3191" d="M43.557,30.76c-74.541,0-134.968-60.427-134.968-134.968c0-69.172,52.039-126.181,119.102-134.035
					c-68.88,6.482-122.78,64.46-122.78,135.035c0,74.916,60.731,135.646,135.646,135.646c25.935,0,50.167-7.283,70.771-19.909
					C91.41,24.118,68.26,30.76,43.557,30.76z"/>
			</g>
		</g>
	</g>
</g>
</svg>
