<?xml version="1.0" encoding="utf-8"?>
<!-- Generator: Adobe Illustrator 16.0.0, SVG Export Plug-In . SVG Version: 6.00 Build 0)  -->
<!DOCTYPE svg PUBLIC "-//W3C//DTD SVG 1.1//EN" "http://www.w3.org/Graphics/SVG/1.1/DTD/svg11.dtd">
<svg version="1.1" xmlns="http://www.w3.org/2000/svg" xmlns:xlink="http://www.w3.org/1999/xlink" x="0px" y="0px"
	 width="114.533px" height="40.446px" viewBox="0 0 114.533 40.446" enable-background="new 0 0 114.533 40.446"
	 xml:space="preserve">
<g id="typed" display="none">
	
		<text transform="matrix(1 0 0 1 0.6479 39.2974)" display="inline" font-family="'HoeflerText-Black'" font-size="54" letter-spacing="-2">bade</text>
</g>
<g id="outlines">
	<g display="none">
		<path display="inline" fill="#404041" d="M31.968,26.784c0,3.276-1.251,6.336-3.753,9.18S22.068,40.23,17.28,40.23
			c-2.268,0-3.915-0.306-4.941-0.918c-1.026-0.611-2.223-0.918-3.591-0.918c-0.685,0-1.242,0.135-1.674,0.405
			c-0.432,0.27-0.774,0.692-1.026,1.269c-0.072,0.108-0.243,0.198-0.513,0.27c-0.27,0.071-0.478,0.108-0.621,0.108
			c-0.18,0-0.405-0.045-0.675-0.135c-0.27-0.09-0.405-0.189-0.405-0.297c0.036-0.468,0.081-1.152,0.135-2.052
			c0.054-0.9,0.081-2.034,0.081-3.402V10.206c0-1.404-0.27-2.339-0.81-2.808C2.7,6.93,1.764,6.625,0.432,6.48
			c-0.108,0-0.207-0.135-0.297-0.405C0.045,5.805,0,5.581,0,5.4c0-0.18,0.045-0.414,0.135-0.702c0.09-0.288,0.189-0.432,0.297-0.432
			c1.691-0.396,3.626-0.99,5.805-1.782c2.178-0.792,3.843-1.476,4.995-2.052c0.108-0.072,0.288-0.162,0.54-0.27
			C12.024,0.054,12.24,0,12.42,0c0.468,0,0.792,0.072,0.972,0.216c0.18,0.144,0.27,0.306,0.27,0.486
			c-0.108,1.368-0.208,2.952-0.297,4.752c-0.09,1.8-0.135,3.258-0.135,4.374v7.56c0.648-0.9,1.575-1.62,2.781-2.16
			s2.565-0.81,4.077-0.81c3.24,0,6.03,1.018,8.37,3.051C30.798,19.503,31.968,22.608,31.968,26.784z M22.194,27
			c0-3.096-0.36-5.354-1.08-6.777c-0.72-1.422-1.998-2.133-3.834-2.133c-1.296,0-2.295,0.414-2.997,1.242
			c-0.702,0.828-1.053,1.728-1.053,2.7V34.02c0,1.044,0.27,1.899,0.81,2.565c0.54,0.667,1.404,0.999,2.592,0.999
			c2.16,0,3.627-1.107,4.401-3.321S22.194,29.628,22.194,27z"/>
		<path display="inline" fill="#404041" d="M60.533,36.774c-0.036,0.108-0.054,0.198-0.054,0.27s-0.054,0.144-0.162,0.216
			c-0.684,0.792-1.746,1.44-3.186,1.944c-1.44,0.504-2.916,0.756-4.428,0.756c-1.476,0-2.673-0.333-3.591-0.999
			c-0.918-0.666-1.521-1.557-1.809-2.673c-0.828,1.26-1.881,2.187-3.159,2.781c-1.278,0.594-2.853,0.891-4.725,0.891
			c-2.052,0-3.789-0.468-5.211-1.404s-2.133-2.358-2.133-4.266c0-2.124,1.17-3.852,3.51-5.184c2.34-1.332,6.264-2.609,11.772-3.834
			l0.162-5.292c0-1.116-0.162-1.854-0.486-2.214c-0.324-0.36-0.864-0.54-1.62-0.54s-1.449,0.145-2.079,0.432
			c-0.63,0.288-0.981,0.882-1.053,1.782c-0.18,2.232-0.648,3.78-1.404,4.644c-0.756,0.864-1.872,1.296-3.348,1.296
			c-1.333,0-2.349-0.387-3.051-1.161s-1.053-1.701-1.053-2.781c0-1.799,1.467-3.456,4.401-4.968
			c2.934-1.512,6.219-2.268,9.855-2.268c3.312,0,5.571,0.828,6.777,2.484c1.206,1.656,1.755,3.906,1.647,6.75l-0.27,9.396
			c-0.072,1.26,0.108,2.079,0.54,2.457c0.432,0.378,0.846,0.567,1.242,0.567c0.324,0,0.63-0.054,0.918-0.162
			c0.288-0.108,0.54-0.252,0.756-0.432c0.144-0.108,0.387,0.027,0.729,0.405C60.362,36.045,60.533,36.415,60.533,36.774z
			 M47.249,27.27c-2.124,0.504-3.654,1.188-4.59,2.052c-0.936,0.864-1.404,2.106-1.404,3.726c0,0.9,0.243,1.62,0.729,2.16
			c0.486,0.54,1.161,0.81,2.025,0.81c0.72,0,1.377-0.225,1.971-0.675c0.594-0.45,0.963-1.305,1.107-2.565L47.249,27.27z"/>
		<path display="inline" fill="#404041" d="M90.287,36.342c0,0.216-0.045,0.45-0.135,0.702c-0.09,0.252-0.189,0.378-0.297,0.378
			c-1.044,0.108-2.628,0.468-4.752,1.08c-2.124,0.612-3.726,1.152-4.806,1.62c-0.108,0.036-0.288,0.099-0.54,0.189
			c-0.252,0.09-0.504,0.135-0.756,0.135c-0.289,0-0.513-0.081-0.675-0.243s-0.243-0.315-0.243-0.459l-0.162-3.294
			c-0.685,1.152-1.62,2.07-2.808,2.754c-1.188,0.684-2.61,1.026-4.266,1.026c-3.672,0-6.57-1.206-8.694-3.618
			c-2.124-2.412-3.186-5.4-3.186-8.964c0-3.888,1.17-7.064,3.51-9.531c2.34-2.466,5.562-3.699,9.666-3.699
			c1.332,0,2.448,0.208,3.348,0.621c0.9,0.415,1.638,0.855,2.214,1.323v-6.156c0-1.404-0.27-2.339-0.81-2.808
			C76.355,6.93,75.4,6.625,74.033,6.48c-0.108,0-0.207-0.135-0.297-0.405c-0.09-0.27-0.135-0.495-0.135-0.675
			c0-0.18,0.045-0.414,0.135-0.702c0.09-0.288,0.189-0.432,0.297-0.432c1.656-0.36,3.618-0.962,5.886-1.809
			c2.268-0.846,3.924-1.521,4.968-2.025c0.108-0.072,0.288-0.162,0.54-0.27C85.679,0.054,85.895,0,86.075,0
			c0.432,0,0.747,0.072,0.945,0.216s0.297,0.306,0.297,0.486C87.209,2.07,87.11,3.654,87.02,5.454
			c-0.09,1.8-0.135,3.258-0.135,4.374v21.978c0,1.296,0.198,2.151,0.594,2.565c0.396,0.415,1.188,0.693,2.376,0.837
			c0.108,0,0.207,0.145,0.297,0.432C90.242,35.928,90.287,36.163,90.287,36.342z M77.705,32.994V20.898
			c0-0.972-0.369-1.791-1.107-2.457c-0.738-0.666-1.809-0.999-3.213-0.999c-1.26,0-2.349,0.594-3.267,1.782
			s-1.377,3.996-1.377,8.424c0,3.276,0.423,5.571,1.269,6.885c0.846,1.314,1.881,1.971,3.105,1.971c0.936,0,1.8-0.288,2.592-0.864
			C76.499,35.064,77.165,34.182,77.705,32.994z"/>
		<path display="inline" fill="#404041" d="M115.396,24.894c0,0.252-0.09,0.45-0.27,0.594c-0.18,0.144-0.432,0.216-0.756,0.216
			H99.466c-0.036,0.252-0.054,0.585-0.054,0.999c0,0.415,0,0.801,0,1.161c0,3.024,0.495,5.13,1.485,6.318
			c0.99,1.188,2.421,1.782,4.293,1.782c1.296,0,2.754-0.324,4.374-0.972s2.79-1.458,3.51-2.43c0.036-0.072,0.144-0.044,0.324,0.081
			c0.18,0.126,0.342,0.243,0.486,0.351c0.18,0.18,0.333,0.369,0.459,0.567c0.125,0.198,0.189,0.387,0.189,0.567
			c0,0.072-0.009,0.144-0.027,0.216c-0.018,0.072-0.063,0.144-0.135,0.216c-0.9,1.296-2.232,2.556-3.996,3.78
			c-1.764,1.224-4.122,1.836-7.074,1.836c-3.852,0-7.092-1.242-9.72-3.726c-2.628-2.484-3.942-5.417-3.942-8.802
			c0-3.815,1.25-6.975,3.753-9.477c2.501-2.502,5.805-3.753,9.909-3.753c3.744,0,6.696,1.008,8.856,3.024
			C114.316,19.458,115.396,21.942,115.396,24.894z M106.433,20.844c0-1.08-0.243-1.998-0.729-2.754
			c-0.486-0.756-1.215-1.134-2.187-1.134c-1.188,0-2.07,0.577-2.646,1.728c-0.576,1.152-0.955,2.664-1.134,4.536l4.428-0.108
			c0.792-0.036,1.368-0.189,1.728-0.459C106.252,22.383,106.433,21.78,106.433,20.844z"/>
	</g>
	<g>
		<path fill="#404041" d="M113.885,32.994c-0.145-0.108-0.307-0.225-0.486-0.351c-0.18-0.125-0.288-0.153-0.324-0.081
			c-0.72,0.972-1.89,1.782-3.51,2.43s-3.078,0.972-4.374,0.972c-1.872,0-3.303-0.594-4.293-1.782
			c-0.99-1.188-1.485-3.294-1.485-6.318c0-0.36,0-0.747,0-1.161c0-0.414,0.018-0.747,0.054-0.999h14.709
			c-2.925-1.16-5.887-2.088-8.87-2.774c-0.312,0.098-0.687,0.161-1.142,0.182l-4.428,0.108c0.043-0.447,0.099-0.87,0.164-1.275
			c-2.954-0.403-5.911-0.59-8.851-0.561c-0.937,1.843-1.411,3.929-1.411,6.264c0,3.385,1.313,6.318,3.942,8.802
			c2.628,2.484,5.868,3.726,9.72,3.726c2.952,0,5.31-0.612,7.074-1.836c1.764-1.224,3.096-2.484,3.996-3.78
			c0.072-0.072,0.117-0.144,0.135-0.216c0.018-0.072,0.027-0.144,0.027-0.216c0-0.18-0.063-0.369-0.189-0.567
			C114.217,33.363,114.064,33.174,113.885,32.994z"/>
		<path fill="#404041" d="M101.699,17.625c0.497-0.428,1.093-0.669,1.817-0.669c0.972,0,1.701,0.378,2.187,1.134
			c0.03,0.046,0.05,0.099,0.079,0.147c2.896,0.534,5.782,1.282,8.638,2.249c-0.536-1.109-1.282-2.127-2.264-3.043
			c-2.16-2.016-5.112-3.024-8.856-3.024c-3.54,0-6.48,0.936-8.828,2.798C96.875,17.211,99.287,17.345,101.699,17.625z"/>
	</g>
	<path fill="#404041" d="M41.587,22.866c0.347-0.866,0.579-2.006,0.694-3.425c0.072-0.9,0.422-1.494,1.053-1.782
		c0.63-0.288,1.323-0.432,2.079-0.432s1.296,0.18,1.62,0.54c0.324,0.36,0.486,1.098,0.486,2.214l-0.113,3.681
		c2.879,0.47,5.761,1.061,8.642,1.77l0.057-1.994c0.108-2.844-0.441-5.094-1.647-6.75c-1.206-1.656-3.465-2.484-6.777-2.484
		c-3.636,0-6.921,0.756-9.855,2.268c-2.934,1.512-4.401,3.168-4.401,4.968c0,0.296,0.032,0.579,0.085,0.852
		C36.193,22.382,38.887,22.572,41.587,22.866z"/>
	<g>
		<path fill="#404041" d="M0.432,6.48C1.764,6.625,2.7,6.93,3.24,7.398c0.54,0.469,0.81,1.404,0.81,2.808v15.108
			c3.022-0.735,6.086-1.338,9.18-1.814v-1.467c0-0.972,0.351-1.872,1.053-2.7c0.702-0.828,1.701-1.242,2.997-1.242
			c1.836,0,3.114,0.711,3.834,2.133c0.308,0.609,0.546,1.382,0.723,2.298c3.159-0.231,6.342-0.326,9.544-0.279
			c-0.564-1.967-1.532-3.564-2.923-4.773c-2.34-2.034-5.13-3.051-8.37-3.051c-1.512,0-2.871,0.27-4.077,0.81s-2.133,1.26-2.781,2.16
			v-7.56c0-1.116,0.045-2.574,0.135-4.374c0.09-1.8,0.189-3.384,0.297-4.752c0-0.18-0.09-0.342-0.27-0.486
			C13.212,0.072,12.888,0,12.42,0c-0.18,0-0.396,0.054-0.648,0.162c-0.252,0.108-0.432,0.198-0.54,0.27
			c-1.152,0.576-2.817,1.26-4.995,2.052C4.059,3.276,2.124,3.871,0.432,4.266c-0.108,0-0.207,0.145-0.297,0.432
			C0.045,4.986,0,5.221,0,5.4c0,0.18,0.045,0.405,0.135,0.675C0.225,6.345,0.324,6.48,0.432,6.48z"/>
		<path fill="#404041" d="M22.123,28.895c-0.143,1.907-0.505,3.697-1.09,5.369c-0.774,2.214-2.241,3.321-4.401,3.321
			c-1.188,0-2.052-0.333-2.592-0.999c-0.54-0.666-0.81-1.521-0.81-2.565v-3.576c-3.103,0.678-6.165,1.495-9.18,2.439v1.677
			c0,1.368-0.027,2.502-0.081,3.402c-0.054,0.9-0.099,1.583-0.135,2.052c0,0.108,0.135,0.207,0.405,0.297
			c0.27,0.09,0.495,0.135,0.675,0.135c0.144,0,0.351-0.037,0.621-0.108c0.27-0.072,0.44-0.162,0.513-0.27
			c0.252-0.577,0.594-0.999,1.026-1.269c0.432-0.27,0.99-0.405,1.674-0.405c1.368,0,2.565,0.307,3.591,0.918
			c1.026,0.612,2.673,0.918,4.941,0.918c4.788,0,8.433-1.421,10.935-4.266c2.176-2.473,3.403-5.11,3.687-7.909
			C28.614,28.184,25.353,28.469,22.123,28.895z"/>
	</g>
	<path fill="#404041" d="M75.707,35.64c-0.792,0.576-1.656,0.864-2.592,0.864c-1.224,0-2.259-0.657-3.105-1.971
		c-0.229-0.356-0.424-0.79-0.591-1.289c-1.854-0.598-3.728-1.163-5.635-1.666c-1.467-0.387-2.934-0.733-4.401-1.057
		c-0.044,0.027-0.086,0.056-0.13,0.083c0.438,2.29,1.395,4.298,2.901,6.008c2.124,2.412,5.022,3.618,8.694,3.618
		c1.656,0,3.078-0.342,4.266-1.026c1.188-0.684,2.124-1.602,2.808-2.754l0.162,3.294c0,0.144,0.081,0.297,0.243,0.459
		s0.387,0.243,0.675,0.243c0.251,0,0.503-0.045,0.756-0.135c0.252-0.09,0.432-0.153,0.54-0.189c0.811-0.351,1.914-0.743,3.312-1.175
		c-2.53-1.233-5.125-2.368-7.78-3.412C75.788,35.567,75.749,35.609,75.707,35.64z"/>
	<g>
		<path fill="#404041" d="M59.291,35.262c-0.216,0.18-0.468,0.324-0.756,0.432c-0.288,0.108-0.594,0.162-0.918,0.162
			c-0.396,0-0.81-0.189-1.242-0.567c-0.426-0.374-0.605-1.181-0.541-2.415c-2.47,1.757-4.827,3.693-7.036,5.817
			c0.104,0.09,0.199,0.187,0.313,0.27c0.918,0.666,2.115,0.999,3.591,0.999c1.512,0,2.988-0.252,4.428-0.756
			c1.439-0.503,2.501-1.152,3.186-1.944c0.108-0.072,0.162-0.144,0.162-0.216s0.018-0.162,0.054-0.27
			c0-0.36-0.171-0.729-0.513-1.107C59.678,35.289,59.435,35.154,59.291,35.262z"/>
		<path fill="#404041" d="M44.144,39.069c1.278-0.594,2.331-1.521,3.159-2.781c0.154,0.598,0.406,1.126,0.741,1.595
			c2.421-2.673,5.057-5.102,7.855-7.292l0.022-0.781c-2.907-0.543-5.812-0.961-8.71-1.262l-0.125,4.229
			c-0.144,1.26-0.513,2.115-1.107,2.565c-0.594,0.45-1.251,0.675-1.971,0.675c-0.864,0-1.539-0.27-2.025-0.81
			c-0.486-0.54-0.729-1.26-0.729-2.16c0-1.62,0.468-2.862,1.404-3.726c0.415-0.383,0.965-0.724,1.613-1.036
			c-2.111-0.161-4.217-0.257-6.315-0.293c-0.912,0.367-1.712,0.738-2.372,1.113c-2.34,1.333-3.51,3.061-3.51,5.184
			c0,1.908,0.711,3.331,2.133,4.266s3.159,1.404,5.211,1.404C41.291,39.96,42.866,39.663,44.144,39.069z"/>
	</g>
	<g>
		<path fill="#404041" d="M69.024,22.677c0.227-1.636,0.588-2.799,1.093-3.453c0.918-1.188,2.007-1.782,3.267-1.782
			c1.404,0,2.475,0.333,3.213,0.999c0.387,0.349,0.666,0.743,0.85,1.176c3.085-0.88,6.24-1.522,9.437-1.921V9.828
			c0-1.116,0.045-2.574,0.135-4.374c0.09-1.8,0.189-3.384,0.297-4.752c0-0.18-0.099-0.342-0.297-0.486S86.507,0,86.075,0
			c-0.18,0-0.396,0.054-0.648,0.162c-0.252,0.108-0.432,0.198-0.54,0.27c-1.044,0.504-2.7,1.179-4.968,2.025
			c-2.268,0.847-4.23,1.449-5.886,1.809c-0.108,0-0.207,0.145-0.297,0.432c-0.09,0.288-0.135,0.522-0.135,0.702
			c0,0.18,0.045,0.405,0.135,0.675c0.09,0.27,0.189,0.405,0.297,0.405c1.368,0.145,2.322,0.45,2.862,0.918
			c0.54,0.469,0.81,1.404,0.81,2.808v6.156c-0.576-0.468-1.314-0.909-2.214-1.323c-0.9-0.414-2.016-0.621-3.348-0.621
			c-4.104,0-7.326,1.233-9.666,3.699c-2.045,2.156-3.196,4.854-3.454,8.096c0.73,0.201,1.443,0.435,2.166,0.649
			C63.704,25.281,66.323,23.884,69.024,22.677z"/>
		<path fill="#404041" d="M89.855,35.208c-1.188-0.144-1.98-0.422-2.376-0.837c-0.396-0.414-0.594-1.269-0.594-2.565V21.582
			c-3.1,0.243-6.169,0.711-9.18,1.414v9.999c-0.031,0.067-0.066,0.124-0.098,0.19c3.11,1.5,6.128,3.129,9.044,4.893
			c1.361-0.355,2.432-0.575,3.204-0.654c0.108,0,0.207-0.126,0.297-0.378c0.09-0.252,0.135-0.486,0.135-0.702
			c0-0.18-0.045-0.414-0.135-0.702C90.062,35.353,89.963,35.208,89.855,35.208z"/>
		<path fill="#404041" d="M68.773,25.816c-1.518,0.607-3.014,1.267-4.481,1.992c1.516,0.497,3.019,1.019,4.499,1.578
			c-0.03-0.548-0.05-1.12-0.05-1.738C68.741,26.999,68.754,26.396,68.773,25.816z"/>
	</g>
</g>
<g id="masked">
	<defs>
		<path id="SVGID_1_" d="M31.968,26.784c0,3.276-1.251,6.336-3.753,9.18S22.068,40.23,17.28,40.23c-2.269,0-3.915-0.306-4.941-0.918
			c-1.025-0.611-2.223-0.918-3.591-0.918c-0.685,0-1.242,0.135-1.674,0.405S6.3,39.492,6.048,40.068
			c-0.072,0.108-0.242,0.198-0.513,0.27c-0.27,0.071-0.478,0.108-0.621,0.108c-0.18,0-0.405-0.045-0.675-0.135
			c-0.271-0.09-0.405-0.189-0.405-0.297c0.036-0.468,0.081-1.152,0.135-2.052c0.055-0.9,0.081-2.034,0.081-3.402V10.206
			c0-1.404-0.27-2.339-0.81-2.808C2.7,6.93,1.764,6.625,0.433,6.48c-0.108,0-0.207-0.135-0.298-0.405C0.045,5.805,0,5.581,0,5.4
			c0-0.18,0.045-0.414,0.135-0.702c0.091-0.288,0.189-0.432,0.298-0.432c1.691-0.396,3.626-0.99,5.805-1.782
			c2.178-0.792,3.843-1.476,4.995-2.052c0.107-0.072,0.287-0.162,0.54-0.27C12.024,0.054,12.24,0,12.42,0
			c0.468,0,0.792,0.072,0.973,0.216c0.18,0.144,0.27,0.306,0.27,0.486c-0.108,1.368-0.207,2.952-0.297,4.752
			c-0.09,1.8-0.135,3.258-0.135,4.374v7.56c0.647-0.9,1.574-1.62,2.78-2.16s2.565-0.81,4.077-0.81c3.24,0,6.03,1.018,8.37,3.051
			C30.798,19.503,31.968,22.608,31.968,26.784z M22.194,27c0-3.096-0.36-5.354-1.08-6.777c-0.72-1.422-1.998-2.133-3.834-2.133
			c-1.296,0-2.295,0.414-2.997,1.242c-0.702,0.828-1.053,1.728-1.053,2.7V34.02c0,1.044,0.27,1.899,0.81,2.565
			c0.54,0.667,1.404,0.999,2.592,0.999c2.16,0,3.627-1.107,4.401-3.321C21.807,32.049,22.194,29.628,22.194,27z M60.533,36.774
			c-0.036,0.108-0.054,0.198-0.054,0.27s-0.054,0.144-0.162,0.216c-0.685,0.792-1.746,1.44-3.186,1.944
			c-1.44,0.504-2.916,0.756-4.429,0.756c-1.476,0-2.673-0.333-3.591-0.999c-0.918-0.666-1.521-1.557-1.809-2.673
			c-0.828,1.26-1.882,2.187-3.159,2.781c-1.278,0.594-2.854,0.891-4.726,0.891c-2.052,0-3.789-0.468-5.211-1.404
			s-2.133-2.358-2.133-4.266c0-2.124,1.17-3.852,3.51-5.184c2.34-1.332,6.265-2.609,11.772-3.834l0.162-5.292
			c0-1.116-0.162-1.854-0.486-2.214c-0.324-0.36-0.864-0.54-1.62-0.54s-1.449,0.145-2.079,0.432c-0.63,0.288-0.98,0.882-1.053,1.782
			c-0.18,2.232-0.647,3.78-1.404,4.644c-0.756,0.864-1.872,1.296-3.348,1.296c-1.332,0-2.349-0.387-3.051-1.161
			s-1.053-1.701-1.053-2.781c0-1.799,1.467-3.456,4.4-4.968s6.219-2.268,9.855-2.268c3.312,0,5.57,0.828,6.776,2.484
			c1.206,1.656,1.755,3.906,1.647,6.75l-0.271,9.396c-0.071,1.26,0.108,2.079,0.54,2.457c0.433,0.378,0.847,0.567,1.242,0.567
			c0.324,0,0.63-0.054,0.918-0.162s0.54-0.252,0.756-0.432c0.145-0.108,0.387,0.027,0.729,0.405
			C60.362,36.045,60.533,36.415,60.533,36.774z M47.249,27.27c-2.124,0.504-3.654,1.188-4.59,2.052
			c-0.936,0.864-1.404,2.106-1.404,3.726c0,0.9,0.243,1.62,0.729,2.16s1.161,0.81,2.025,0.81c0.72,0,1.377-0.225,1.971-0.675
			c0.594-0.45,0.963-1.305,1.106-2.565L47.249,27.27z M90.287,36.342c0,0.216-0.045,0.45-0.135,0.702
			c-0.091,0.252-0.189,0.378-0.297,0.378c-1.045,0.108-2.629,0.468-4.753,1.08c-2.124,0.612-3.726,1.152-4.806,1.62
			c-0.107,0.036-0.288,0.099-0.54,0.189c-0.252,0.09-0.504,0.135-0.756,0.135c-0.288,0-0.513-0.081-0.675-0.243
			s-0.243-0.315-0.243-0.459l-0.162-3.294c-0.685,1.152-1.62,2.07-2.808,2.754c-1.188,0.684-2.61,1.026-4.267,1.026
			c-3.672,0-6.57-1.206-8.693-3.618c-2.124-2.412-3.187-5.4-3.187-8.964c0-3.888,1.17-7.064,3.51-9.531
			c2.34-2.466,5.562-3.699,9.666-3.699c1.332,0,2.448,0.208,3.349,0.621c0.899,0.415,1.638,0.855,2.214,1.323v-6.156
			c0-1.404-0.271-2.339-0.811-2.808C76.355,6.93,75.4,6.625,74.033,6.48c-0.108,0-0.207-0.135-0.297-0.405
			c-0.091-0.27-0.136-0.495-0.136-0.675c0-0.18,0.045-0.414,0.136-0.702c0.09-0.288,0.188-0.432,0.297-0.432
			c1.655-0.36,3.618-0.962,5.886-1.809c2.269-0.846,3.924-1.521,4.968-2.025c0.108-0.072,0.288-0.162,0.54-0.27S85.895,0,86.075,0
			c0.432,0,0.746,0.072,0.944,0.216s0.298,0.306,0.298,0.486C87.209,2.07,87.11,3.654,87.02,5.454
			c-0.09,1.8-0.135,3.258-0.135,4.374v21.978c0,1.296,0.198,2.151,0.595,2.565c0.396,0.415,1.188,0.693,2.376,0.837
			c0.107,0,0.206,0.145,0.297,0.432C90.242,35.928,90.287,36.163,90.287,36.342z M77.705,32.994V20.898
			c0-0.972-0.369-1.791-1.107-2.457s-1.809-0.999-3.213-0.999c-1.26,0-2.349,0.594-3.267,1.782s-1.377,3.996-1.377,8.424
			c0,3.276,0.423,5.571,1.269,6.885s1.881,1.971,3.105,1.971c0.936,0,1.8-0.288,2.592-0.864
			C76.499,35.064,77.165,34.182,77.705,32.994z M115.396,24.894c0,0.252-0.09,0.45-0.27,0.594s-0.432,0.216-0.756,0.216H99.467
			c-0.036,0.252-0.054,0.585-0.054,0.999c0,0.415,0,0.801,0,1.161c0,3.024,0.494,5.13,1.484,6.318s2.421,1.782,4.294,1.782
			c1.295,0,2.754-0.324,4.373-0.972c1.621-0.648,2.791-1.458,3.511-2.43c0.036-0.072,0.144-0.044,0.323,0.081
			c0.18,0.126,0.342,0.243,0.486,0.351c0.18,0.18,0.333,0.369,0.459,0.567c0.126,0.198,0.189,0.387,0.189,0.567
			c0,0.072-0.01,0.144-0.027,0.216c-0.018,0.072-0.062,0.144-0.135,0.216c-0.9,1.296-2.232,2.556-3.996,3.78
			c-1.764,1.224-4.122,1.836-7.074,1.836c-3.853,0-7.092-1.242-9.72-3.726c-2.629-2.484-3.942-5.417-3.942-8.802
			c0-3.815,1.251-6.975,3.753-9.477s5.806-3.753,9.909-3.753c3.744,0,6.696,1.008,8.856,3.024
			C114.316,19.458,115.396,21.942,115.396,24.894z M106.434,20.844c0-1.08-0.244-1.998-0.729-2.754
			c-0.485-0.756-1.215-1.134-2.188-1.134c-1.188,0-2.07,0.577-2.646,1.728c-0.576,1.152-0.955,2.664-1.135,4.536l4.429-0.108
			c0.792-0.036,1.368-0.189,1.728-0.459C106.253,22.383,106.434,21.78,106.434,20.844z"/>
	</defs>
	<clipPath id="SVGID_2_">
		<use xlink:href="#SVGID_1_"  overflow="visible"/>
	</clipPath>
	<linearGradient id="SVGID_3_" gradientUnits="userSpaceOnUse" x1="-0.5469" y1="21.5366" x2="107.0317" y2="21.5366">
		<stop  offset="0" style="stop-color:#EA2127"/>
		<stop  offset="1" style="stop-color:#2582C5"/>
	</linearGradient>
	<path display="none" clip-path="url(#SVGID_2_)" fill="url(#SVGID_3_)" d="M-0.219,27.723c51.833,14.667,91.75,5.75,107.25-11.75
		c-7.333,6.167-76.25,20-106.75-8C-0.718,11.223-0.719,23.223-0.219,27.723z"/>
	<g clip-path="url(#SVGID_2_)">
		<path fill="#EC1C24" d="M59.844,27.788C1.862,12.479-57.474,46.781-72.688,104.405C-86.834,157.992-57.83,212.852-7.067,232.589
			c-52.442-19.051-82.687-75.036-68.256-129.698C-60.033,44.978-0.398,10.503,57.873,25.888c20.356,5.375,37.84,16.135,51.34,30.314
			C96.025,42.961,79.25,32.912,59.844,27.788z"/>
		<path fill="#F1F1F2" d="M61.813,29.685C4.123,14.453-54.917,48.584-70.054,105.919c-14.066,53.283,14.747,107.833,65.195,127.504
			c-52.127-18.986-82.18-74.659-67.829-129.019c15.214-57.624,74.55-91.926,132.532-76.617c20.234,5.342,37.615,16.031,51.042,30.12
			C97.772,44.757,81.099,34.775,61.813,29.685z"/>
		<path fill="#00ADEE" d="M63.784,31.578C6.382,16.424-52.362,50.384-67.424,107.433c-13.997,53.013,14.67,107.287,64.859,126.862
			c-51.865-18.891-81.767-74.288-67.489-128.375C-54.917,48.584,4.123,14.453,61.813,29.685
			c20.115,5.31,37.397,15.932,50.752,29.931C99.524,46.553,82.951,36.639,63.784,31.578z"/>
	</g>
	<g clip-path="url(#SVGID_2_)">
		<path fill="#EC1C24" d="M150.291,106.08c13.853-31.681-0.441-68.522-31.926-82.289C89.085,10.99,55.262,22.662,39.526,49.837
			C55.021,21.645,89.593,9.365,119.46,22.424c31.643,13.834,46.008,50.861,32.087,82.701c-4.863,11.123-12.541,20.131-21.813,26.568
			C138.445,125.352,145.654,116.683,150.291,106.08z"/>
		<path fill="#F1F1F2" d="M149.036,107.034c13.783-31.522-0.44-68.179-31.768-81.876C88.156,12.429,54.526,24.02,38.854,51.021
			c15.43-28.019,49.808-40.215,79.51-27.23c31.485,13.767,45.779,50.608,31.926,82.289c-4.834,11.056-12.461,20.012-21.677,26.416
			C137.267,126.188,144.429,117.571,149.036,107.034z"/>
		<path fill="#00ADEE" d="M147.782,107.989c13.714-31.364-0.438-67.837-31.608-81.467c-28.965-12.665-62.425-1.134-78.018,25.729
			c15.352-27.878,49.561-40.014,79.113-27.094c31.327,13.697,45.55,50.354,31.768,81.876c-4.806,10.991-12.386,19.898-21.543,26.269
			C136.088,127.027,143.204,118.462,147.782,107.989z"/>
	</g>
</g>
<g id="swoosh" display="none">
	<g display="inline">
		<g>
			<g>
				<path fill="#EC1C24" d="M36.422,33.009c-75.292,0-136.328-61.036-136.328-136.328c0-69.968,52.714-127.616,120.592-135.419
					c-69.698,6.426-124.277,65.044-124.277,136.419c0,75.67,61.343,137.013,137.013,137.013c26.296,0,50.859-7.414,71.722-20.257
					C84.965,26.239,61.485,33.009,36.422,33.009z"/>
			</g>
		</g>
		<g>
			<g>
				<path fill="#FFFFFF" d="M39.422,31.328c-74.916,0-135.646-60.731-135.646-135.646c0-69.569,52.376-126.896,119.845-134.725
					c-69.288,6.454-123.527,64.751-123.527,135.725c0,75.292,61.036,136.328,136.328,136.328c26.115,0,50.512-7.349,71.246-20.083
					C87.62,24.621,64.305,31.328,39.422,31.328z"/>
			</g>
		</g>
		<g>
			<g>
				<path fill="#2E3191" d="M42.422,29.649c-74.541,0-134.968-60.427-134.968-134.968c0-69.172,52.039-126.181,119.102-134.035
					c-68.88,6.482-122.78,64.46-122.78,135.035c0,74.916,60.731,135.646,135.646,135.646c25.935,0,50.167-7.283,70.771-19.909
					C90.275,23.007,67.125,29.649,42.422,29.649z"/>
			</g>
		</g>
	</g>
</g>
</svg>
